<svg width="25" height="21" viewBox="0 0 25 21" fill="none" xmlns="http://www.w3.org/2000/svg">
<path d="M18.5002 17.2175C17.9317 17.2083 17.4788 16.7481 17.4878 16.1886C17.4968 15.6291 17.9643 15.1836 18.5329 15.1928C20.7999 15.2294 22.6746 13.443 22.7106 11.2121C22.7449 9.08779 21.0846 7.28954 18.933 7.1173L18.3264 7.07194L18.0773 6.5296C17.0948 4.39604 14.9293 2.99278 12.5611 2.9546C10.1928 2.91641 7.98324 4.24912 6.93243 6.34989L6.66596 6.88392L6.06065 6.9121C3.9022 7.01484 2.18721 8.75868 2.15296 10.883C2.11699 13.1139 3.93314 14.9598 6.20019 14.9963C6.76876 15.0055 7.22161 15.4657 7.21259 16.0253C7.20357 16.5848 6.73611 17.0302 6.16754 17.021C2.76576 16.9662 0.0439025 14.1998 0.0978829 10.8522C0.146091 7.86255 2.41527 5.3759 5.3669 4.95157C6.85321 2.44518 9.62798 0.884439 12.5937 0.932261C15.5594 0.980083 18.2824 2.62947 19.6896 5.17778C22.626 5.69705 24.8138 8.25794 24.7656 11.2476C24.7117 14.5929 21.902 17.2724 18.5002 17.2175Z" fill="white"/>
<path d="M12.2864 20.204C12.0402 20.2 11.7954 20.105 11.6086 19.922L8.76187 17.1001C8.39046 16.732 8.3999 16.1466 8.78295 15.7927C9.16377 15.4367 9.77595 15.4466 10.1451 15.8147L12.3202 17.9708L14.5636 15.8859C14.9444 15.5299 15.5566 15.5398 15.9257 15.9079C16.2971 16.2761 16.2877 16.8615 15.9047 17.2153L12.9685 19.9439C12.7803 20.1209 12.5326 20.208 12.2864 20.204Z" fill="white"/>
<path d="M12.2841 20.2032C11.8581 20.1964 11.5207 19.7308 11.5298 19.1625L11.6458 11.9688C11.655 11.4004 12.0072 10.946 12.4333 10.9529C12.8593 10.9597 13.1967 11.4253 13.1876 11.9936L13.0716 19.1873C13.0624 19.7557 12.7102 20.2101 12.2841 20.2032Z" fill="white"/>
</svg>
