<svg width="32" height="31" viewBox="0 0 32 31" fill="none" xmlns="http://www.w3.org/2000/svg">
<path d="M31.8404 15.4998C31.8404 24.0392 24.9239 30.9557 16.3846 30.9557C7.84521 30.9557 0.928711 24.0392 0.928711 15.4998C0.928711 6.96044 7.84521 0.0439453 16.3846 0.0439453C24.9239 0.0439453 31.8404 6.96044 31.8404 15.4998Z" fill="url(#paint0_linear_203_155)"/>
<path d="M13.551 22.5844C13.0487 22.5844 13.1389 22.3912 12.9585 21.9147L11.4902 17.0718L20.6092 11.3789L21.6782 11.6623L20.7895 14.0837L13.551 22.5844Z" fill="#C8DAEA"/>
<path d="M13.5511 22.5842C13.9375 22.5842 14.1049 22.4039 14.3239 22.1979C14.6588 21.8759 18.9606 17.6899 18.9606 17.6899L16.3203 17.0459L13.8731 18.5915L13.5511 22.4555V22.5842Z" fill="#A9C9DD"/>
<path d="M13.8086 18.6433L20.0425 23.2414C20.7509 23.6278 21.2661 23.4346 21.4464 22.5845L23.9837 10.632C24.2413 9.58874 23.5845 9.12507 22.9018 9.43419L8.01268 15.1786C6.99517 15.5908 7.00805 16.1575 7.83236 16.4022L11.6577 17.6L20.5062 12.023C20.9183 11.7654 21.3047 11.9071 20.9956 12.1905L13.8086 18.6433Z" fill="url(#paint1_linear_203_155)"/>
<defs>
<linearGradient id="paint0_linear_203_155" x1="20.9144" y1="4.92929" x2="13.1865" y2="22.9609" gradientUnits="userSpaceOnUse">
<stop stop-color="#37AEE2"/>
<stop offset="1" stop-color="#1E96C8"/>
</linearGradient>
<linearGradient id="paint1_linear_203_155" x1="17.5426" y1="15.9843" x2="20.7626" y2="21.1362" gradientUnits="userSpaceOnUse">
<stop stop-color="#EFF7FC"/>
<stop offset="1" stop-color="white"/>
</linearGradient>
</defs>
</svg>
